# xmcd
#
# Track frame offsets: 
#        150
#        2350
#        15565
#        25782
#        36405
#        51692
#        54645
#        56925
#        65092
#        70535
#        81727
#        95437
#        104130
#        106862
#        109265
#        118622
#        132997
#        140925
#        152847
#        157505
#        161955
#        164010
#        178620
#        195135
#        204700
#        213015
#
# Disc length: 2863 seconds
#
# Revision: 0
# Processed by: cddbd v1.5.2PL0 Copyright (c) Steve Scherf et al.
# Submitted via: ExactAudioCopy v0.99pb4
#
DISCID=7b0b2d1a
DTITLE=Jim Reeves - Radio Days Volume 2 - Disc 3
DYEAR=2010
DGENRE=Country
TTITLE0=Intro
TTITLE1=Oklahoma Hills
TTITLE2=Just Married (Faron Young)
TTITLE3=Have I Told You Lately That I Love You
TTITLE4=Highway To Nowhere
TTITLE5=Outro
TTITLE6=Intro
TTITLE7=Bimbo
TTITLE8=Orange Blossom Special (Buck Ryan)
TTITLE9=My Lips Are Sealed
TTITLE10=Big Blue Diamonds (Jimmy Dean)
TTITLE11=According To My Heart
TTITLE12=Outro
TTITLE13=Intro
TTITLE14=If You Were Mine
TTITLE15=Have I Told You Lately That I Love You
TTITLE16=Glad Rags (Jimmy Dean)
TTITLE17=I've Lived A Lot In My Times
TTITLE18=Turkey In The Straw (Buck Ryan)
TTITLE19=Outro
TTITLE20=Intro
TTITLE21=Four Walls
TTITLE22=Am I Losing You
TTITLE23=Ill Get Along Somehow (Ernest Tubb)
TTITLE24=Waiting For A Train
TTITLE25=Outro
EXTD=
EXTT0=
EXTT1=
EXTT2=
EXTT3=
EXTT4=
EXTT5=
EXTT6=
EXTT7=
EXTT8=
EXTT9=
EXTT10=
EXTT11=
EXTT12=
EXTT13=
EXTT14=
EXTT15=
EXTT16=
EXTT17=
EXTT18=
EXTT19=
EXTT20=
EXTT21=
EXTT22=
EXTT23=
EXTT24=
EXTT25=
PLAYORDER=
